<?xml version="1.0" encoding="UTF-8"?>
<svg id="Layer_2" data-name="Layer 2" xmlns="http://www.w3.org/2000/svg" viewBox="0 0 1915.97 237.38">
  <defs>
    <style>
      .cls-1 {
        fill: none;
        stroke: #0c51dd;
        stroke-miterlimit: 10;
        stroke-width: 6px;
      }
    </style>
  </defs>
  <path class="cls-1" d="m.84,169.42c180.08-52.2,372.15,10.1,559.53,3.54,114.89-4.02,233.68-33.59,342.25,4.22,7.88,2.75,16.12,6.19,20.84,13.08,9.72,14.16-1.89,34.89-17.96,40.96s-33.96,2.13-50.74-1.5c-157.82-34.13-322.78-34.84-480.89-2.05,14.67-39.72,29.33-79.44,44-119.17,5.1-13.82,10.4-27.98,20.08-39.1,19.34-22.22,51.27-27.43,80.48-31.25-31.47,54.94-62.94,109.88-94.41,164.82,152.42-32.01,310.15-9.57,465.56.64,18.68,1.23,44.98-5.21,42.59-23.77-1.31-10.2-11.6-16.48-20.99-20.69-126.63-56.69-272.43-8.04-410.96-.46,9.6-51.12,24.26-101.28,43.7-149.52,90.96,20.19,185.81,22.73,277.73,7.44,48.61-8.09,109.76-16.16,136.78,25.05,33.37,50.88-23.5,121.14-1.83,178,20.46-48.3-22.11-104.6-6.71-154.75,11.51-37.48,52.81-58.75,91.92-61.5s77.62,8.64,116.23,15.45c69.83,12.33,142.26,9.66,210.99-7.77,14.89,48.42,29.78,96.85,44.68,145.27-135.25,9.16-273.43-38.51-404.94-5.6-16.47,4.12-36.42,15.64-32.44,32.14,2.67,11.03,14.99,16.45,26.02,19.15,54.16,13.25,110.69-.39,165.84-8.59,107.09-15.93,217.25-10.96,322.48,14.53-31.19-56.76-62.37-113.51-93.56-170.27,42.81-.52,78.04,35,97.22,73.28,19.18,38.28,27.87,81.3,48.66,118.73-174.46-40.03-356.6-2.09-535.43-9.66-13.77-.58-32.32-7.05-29.8-20.6,80.06-61.91,193.05-41.97,293.97-34.41,214.39,16.08,431.99-38.05,643.69-.54"/>
</svg>