<?xml version="1.0" encoding="UTF-8"?>
<svg id="Layer_1" data-name="Layer 1" xmlns="http://www.w3.org/2000/svg" viewBox="0 0 774 528">
  <defs>
    <style>
      .cls-1 {
        fill: none;
        stroke: #f27405;
        stroke-miterlimit: 10;
        stroke-width: 3px;
      }

      .cls-2 {
        fill: #efeae2;
        stroke-width: 0px;
      }
    </style>
  </defs>
  <rect class="cls-2" width="774" height="528"/>
  <path class="cls-1" d="m552.45,238.1c-19.18-20.77-35.32-44.32-47.77-69.7-6.87-14.02-13.39-29.48-26.69-37.65-9.65-5.93-21.56-7.03-32.84-6.02s-22.29,3.97-33.51,5.57c-22.35,3.19-46.82,1.46-65.44,14.22-11.04,7.57-18.4,19.26-26.16,30.17-18.65,26.24-44.11,51.14-76.13,54.52-3.2.34-6.82.31-9.12-1.94-2.34-2.28-2.42-5.96-2.34-9.24.58-23.23,2.47-49.29,19.95-64.59,2.93-2.57,6.37-4.93,7.74-8.58.67-1.79.77-3.74,1.01-5.64,1.3-10.42,7.21-20.18,15.83-26.17-9.98,4.79-20.23,9.79-27.57,18.07s-11.08,20.78-6.07,30.65c10-12.03,24.36-19.45,38.31-26.54,7.28-3.7,14.61-7.43,22.4-9.87,10.44-3.28,21.48-4.19,32.42-4.56,19.84-.67,39.74.37,59.4,3.1,8.79,1.22,17.58,2.8,25.92,5.82,9,3.26,17.32,8.15,25.57,13.01,4.68,2.76,9.38,5.52,13.6,8.93,20.32,16.41,26.69,44.81,44.21,64.18,12.48,13.81,30.28,22.32,48.7,24.95-17.46-7.8-27.14-26.34-34.98-43.79-9.75-21.69-19.17-44.43-36.52-60.69-2.07-1.94-4.33-3.82-7.06-4.62-4.45-1.3-9.13.5-13.59,1.77-8.97,2.55-18.55,2.93-27.69,1.09,6.51-3.88,14.68.29,21.06,4.38,15.93,10.21,31.85,20.41,47.78,30.62,9.95,6.38,19.91,12.76,29.47,19.7,18.66,13.55,36.8,29.7,59.41,34.23-12.35-7.38-23.98-16.15-33.49-26.94-15.11-17.15-24.89-39.37-43.51-52.63-9.81-6.99-21.69-11.02-33.73-11.46-12.09-.43-24.14,2.67-36.21,1.8-7.06-.51-13.94-2.37-20.86-3.82-45.7-9.58-94.95-.96-134.68,23.57,11.41-5.13,22.81-10.26,34.22-15.39,6.96-3.13,13.97-6.28,21.4-8.04,8.98-2.13,18.31-2.18,27.54-2.12,16.9.12,33.81.57,50.69,1.38-.71-1.27-2.5-1.3-3.94-1.16-16.77,1.56-33.66,3.15-49.81,7.89-16.16,4.74-31.73,12.9-42.67,25.7-4.07,4.76-7.64,10.25-13.14,13.23,14.63,3.41,30.79-.61,42.12-10.46-7.77,20.19-32.34,32.14-53.02,25.79-.23,1.26-.46,2.52-.7,3.78-5.44-4.92-13.34-6.99-20.5-5.37-4.79,1.09-9.1,3.67-13.68,5.43s-9.94,2.66-14.29.39c-4.36-2.27-6.6-8.73-3.24-12.32"/>
  <path class="cls-1" d="m240.13,263.7c19.15,20.78,35.28,44.36,47.7,69.75,6.86,14.02,13.36,29.49,26.65,37.67,9.64,5.94,21.56,7.06,32.84,6.06s22.3-3.94,33.51-5.53c22.35-3.17,46.82-1.42,65.46-14.16,11.05-7.55,18.42-19.24,26.19-30.14,18.68-26.22,44.17-51.1,76.19-54.45,3.2-.33,6.82-.3,9.12,1.95,2.34,2.29,2.41,5.97,2.33,9.24-.6,23.22-2.52,49.29-20.02,64.57-2.94,2.56-6.38,4.92-7.75,8.57-.67,1.79-.77,3.74-1.01,5.64-1.31,10.42-7.23,20.17-15.86,26.15,9.98-4.78,20.24-9.77,27.59-18.04,7.35-8.28,11.1-20.77,6.1-30.64-10.02,12.02-24.38,19.42-38.33,26.5-7.29,3.7-14.61,7.41-22.41,9.85-10.45,3.27-21.48,4.17-32.42,4.53-19.84.65-39.74-.41-59.4-3.16-8.79-1.23-17.58-2.81-25.92-5.85-9-3.27-17.31-8.17-25.56-13.04-4.68-2.76-9.37-5.53-13.59-8.95-20.3-16.43-26.65-44.83-44.14-64.23-12.47-13.82-30.25-22.35-48.68-25,17.45,7.82,27.11,26.37,34.94,43.82,9.73,21.7,19.12,44.45,36.46,60.72,2.07,1.94,4.33,3.83,7.05,4.63,4.45,1.31,9.13-.49,13.59-1.76,8.97-2.54,18.55-2.91,27.69-1.06-6.51,3.87-14.68-.3-21.06-4.4-15.92-10.22-31.83-20.45-47.75-30.67-9.94-6.39-19.89-12.78-29.45-19.73-18.65-13.57-36.77-29.74-59.37-34.29,12.34,7.4,23.97,16.17,33.47,26.98,15.1,17.17,24.85,39.39,43.46,52.67,9.8,7,21.68,11.04,33.72,11.49,12.09.45,24.15-2.65,36.21-1.76,7.06.52,13.93,2.38,20.86,3.84,45.69,9.63,94.95,1.06,134.71-23.43-11.41,5.12-22.82,10.24-34.24,15.35-6.96,3.12-13.98,6.26-21.4,8.02-8.98,2.12-18.31,2.17-27.54,2.09-16.9-.13-33.8-.61-50.69-1.43.71,1.27,2.49,1.3,3.94,1.17,16.77-1.55,33.66-3.11,49.82-7.84s31.74-12.87,42.7-25.66c4.07-4.75,7.65-10.24,13.15-13.22-14.63-3.42-30.79.58-42.13,10.42,7.79-20.18,32.38-32.11,53.04-25.74.23-1.26.47-2.52.7-3.78,5.44,4.93,13.33,7.01,20.49,5.39,4.8-1.08,9.1-3.66,13.69-5.42s9.94-2.65,14.29-.38c4.36,2.28,6.59,8.74,3.23,12.33"/>
</svg>