<?xml version="1.0" encoding="UTF-8"?>
<svg id="Layer_1" data-name="Layer 1" xmlns="http://www.w3.org/2000/svg" viewBox="0 0 2149 1002">
  <defs>
    <style>
      .cls-1 {
        letter-spacing: -.02em;
      }

      .cls-2 {
        letter-spacing: -.02em;
      }

      .cls-3, .cls-4 {
        font-family: KohinoorTelugu-Light, 'Kohinoor Telugu';
        font-weight: 300;
      }

      .cls-5, .cls-4 {
        font-size: 60px;
      }

      .cls-6, .cls-7 {
        stroke-width: 4px;
      }

      .cls-6, .cls-7, .cls-8, .cls-9 {
        fill: none;
        stroke-miterlimit: 10;
      }

      .cls-6, .cls-8, .cls-9 {
        stroke: #f27405;
      }

      .cls-7 {
        stroke: #0c51dd;
      }

      .cls-10 {
        letter-spacing: -.05em;
      }

      .cls-11 {
        letter-spacing: 0em;
      }

      .cls-12 {
        font-size: 48px;
      }

      .cls-9 {
        stroke-width: 27px;
      }

      .cls-13 {
        fill: #0c51dd;
      }

      .cls-13, .cls-14 {
        stroke-width: 0px;
      }

      .cls-14 {
        fill: #efeae2;
      }
    </style>
  </defs>
  <rect class="cls-14" width="1846" height="1002"/>
  <rect class="cls-13" x="127" y="98" width="517" height="682"/>
  <rect class="cls-13" x="217" y="39" width="489" height="663"/>
  <rect class="cls-13" x="29" y="561" width="432" height="379"/>
  <rect class="cls-13" x="588" y="219" width="220" height="220"/>
  <rect class="cls-13" x="748" y="39" width="115" height="160"/>
  <rect class="cls-13" x="841" y="241" width="188" height="368"/>
  <rect class="cls-9" x="1066" y="39" width="735" height="901"/>
  <rect class="cls-8" x="2143.5" y="425.5" width="5" height="49"/>
  <text/>
  <text class="cls-4" transform="translate(1134.98 137.64)"><tspan class="cls-2" x="0" y="0">K</tspan><tspan class="cls-11" x="32.34" y="0">ON</tspan><tspan class="cls-10" x="113.58" y="0">T</tspan><tspan x="138.72" y="0">AKTIN</tspan><tspan class="cls-1" x="292.86" y="0">F</tspan><tspan class="cls-11" x="320.52" y="0">ORM</tspan><tspan class="cls-10" x="446.21" y="0">A</tspan><tspan x="477.71" y="0">TION</tspan></text>
  <text class="cls-3" transform="translate(1134.67 341.54)"><tspan class="cls-5"><tspan x="0" y="0">EMAIL: </tspan></tspan><tspan class="cls-12"><tspan x="0" y="57.6">lepa0001@stud.kea.dk</tspan></tspan><tspan class="cls-5"><tspan x="0" y="201.6">TELE</tspan><tspan class="cls-2" x="119.46" y="201.6">F</tspan><tspan x="147.12" y="201.6">ONNUMMER:</tspan></tspan><tspan class="cls-12"><tspan x="0" y="259.2">60 70 83 82</tspan></tspan></text>
  <rect class="cls-6" x="322" y="284" width="645" height="616"/>
  <rect class="cls-7" x="1007" y="190" width="839" height="526"/>
</svg>