<?xml version="1.0" encoding="UTF-8"?>
<svg id="Layer_2" data-name="Layer 2" xmlns="http://www.w3.org/2000/svg" viewBox="0 0 20 20">
  <defs>
    <style>
      .cls-1 {
        fill: #3c3d30;
        stroke-width: 0px;
      }
    </style>
  </defs>
  <g id="Layer_1-2" data-name="Layer 1">
    <path class="cls-1" d="m9,14h2v-4.2l1.6,1.6,1.4-1.4-4-4-4,4,1.4,1.4,1.6-1.6v4.2Zm1,6c-1.38,0-2.68-.26-3.9-.79s-2.28-1.24-3.18-2.14-1.61-1.96-2.14-3.18-.79-2.52-.79-3.9.26-2.68.79-3.9,1.24-2.28,2.14-3.18,1.96-1.61,3.18-2.14,2.52-.79,3.9-.79,2.68.26,3.9.79,2.28,1.24,3.18,2.14,1.61,1.96,2.14,3.18.79,2.52.79,3.9-.26,2.68-.79,3.9-1.24,2.28-2.14,3.18-1.96,1.61-3.18,2.14-2.52.79-3.9.79Zm0-2c2.23,0,4.13-.78,5.68-2.33s2.33-3.44,2.33-5.68-.78-4.13-2.33-5.68-3.44-2.33-5.68-2.33-4.13.78-5.68,2.33-2.33,3.44-2.33,5.68.78,4.13,2.33,5.68,3.44,2.33,5.68,2.33Z"/>
  </g>
</svg>